<svg xmlns="http://www.w3.org/2000/svg" fill="currentColor" viewBox="0 0 103.3949 107.0495"><path d="m59.1918 100.7258-5.746 5.75 20.9865 20.9592c13.1392 13.1223 20.9775 21.0016 20.9627 21.073-.0127.0624-9.4567 9.5443-20.9862 21.0706l-20.963 20.9569 5.7137 5.7147c3.1425 3.1433 5.7484 5.715 5.7904 5.715.0423 0 2.63-2.563 5.75-5.6957a94765.6937 94765.6937 0 0 1 17.9384-18.0012c21.867-21.939 29.4431-29.5984 29.4431-29.768 0-.1143-.6643-.8035-5.0834-5.2747-7.6803-7.7705-47.8433-48.1155-47.987-48.2044-.0404-.0252-2.659 2.542-5.8192 5.7047m38.345-.0668c-3.1324 3.1309-5.696 5.7103-5.6965 5.7323-.0005.022 2.1598 2.1854 4.8009 4.8074 2.6408 2.6223 8.382 8.3378 12.758 12.7016 15.3804 15.3371 23.763 23.641 24.3133 24.0858.1902.1535.3458.3358.3458.4051 0 .0696-1.737 1.8468-3.886 3.9762-2.1375 2.118-11.2953 11.2368-20.3509 20.2641-9.0556 9.0276-16.8058 16.7484-17.2225 17.1575-.4165.409-.7575.7694-.7575.8009 0 .0823 11.4149 11.4847 11.4572 11.4448.2352-.2204 53.5422-53.5287 53.5422-53.5432 0-.0344-53.504-53.4869-53.5578-53.5062-.0278-.01-2.6135 2.5432-5.7462 5.6738"  transform="translate(-53.4458 -94.9854)"/></svg>
